<svg id="Capa_1" enable-background="new 0 0 512 512" height="512" viewBox="0 0 512 512" width="512" xmlns="http://www.w3.org/2000/svg"><g><path d="m355.097 0h-198.194c-6.017 0-11.658 1.609-16.516 4.42l-9.95 28.612v437.352c0 18.243 14.789 33.032 33.032 33.032h198.193l22.046-7.931c2.811-4.859 4.42-10.501 4.42-16.518v-445.935c.001-18.243-14.788-33.032-33.031-33.032z" fill="#615260"/><path d="m355.097 495.484-214.71-462.452v-28.612c-9.832 5.722-16.516 16.417-16.516 28.612v445.936c0 18.243 14.789 33.032 33.032 33.032h198.193c12.196 0 22.89-6.683 28.612-16.514z" fill="#4e3d4d"/><path d="m355.097 16.516h-24.774c-4.561 0-8.258 3.697-8.258 8.258 0 9.122-7.395 16.516-16.516 16.516h-99.097c-9.122 0-16.516-7.395-16.516-16.516 0-4.561-3.697-8.258-8.258-8.258h-24.774c-9.122 0-16.516 7.395-16.516 16.516v445.935c0 9.122 7.395 16.516 16.516 16.516h198.194c9.122 0 16.516-7.395 16.516-16.516v-445.935c-.001-9.121-7.396-16.516-16.517-16.516z" fill="#fff0d2"/><path d="m330.323 478.968h-148.646c-13.682 0-24.774-11.092-24.774-24.774v-371.613c0-13.682 11.092-24.774 24.774-24.774h148.645c13.682 0 24.774 11.092 24.774 24.774v371.613c.001 13.682-11.091 24.774-24.773 24.774z" fill="#fff"/><path d="m305.548 140.387h-99.097c-2.453 0-4.822.356-7.059 1.02-10.243 3.04-13.857 23.754-13.857 23.754l8.973 16.808h111.039l23.365-8.551c.913-2.583 1.409-5.362 1.409-8.257.002-13.682-11.09-24.774-24.773-24.774z" fill="#ff7e8e"/><path d="m256 115.613c-4.565 0-8.258-3.698-8.258-8.258v-24.774c0-4.56 3.694-8.258 8.258-8.258s8.258 3.698 8.258 8.258v24.774c0 4.56-3.693 8.258-8.258 8.258z" fill="#ffeca8"/><path d="m214.71 123.871c-2.113 0-4.226-.806-5.839-2.419l-8.258-8.258c-3.226-3.226-3.226-8.452 0-11.677 3.226-3.226 8.452-3.226 11.677 0l8.258 8.258c3.226 3.226 3.226 8.452 0 11.677-1.613 1.613-3.725 2.419-5.838 2.419z" fill="#fff0d2"/><path d="m297.29 123.871c-2.113 0-4.226-.806-5.839-2.419-3.226-3.226-3.226-8.452 0-11.677l8.258-8.258c3.226-3.226 8.452-3.226 11.677 0 3.226 3.226 3.226 8.452 0 11.677l-8.258 8.258c-1.612 1.613-3.725 2.419-5.838 2.419z" fill="#fff0d2"/><path d="m256 214.71c4.565 0 8.258 3.698 8.258 8.258v24.774c0 4.56-3.694 8.258-8.258 8.258s-8.258-3.698-8.258-8.258v-24.774c0-4.561 3.693-8.258 8.258-8.258z" fill="#ffeca8"/><path d="m297.29 206.452c2.113 0 4.226.806 5.839 2.419l8.258 8.258c3.226 3.226 3.226 8.452 0 11.677-3.226 3.226-8.452 3.226-11.677 0l-8.258-8.258c-3.226-3.226-3.226-8.452 0-11.677 1.613-1.613 3.725-2.419 5.838-2.419z" fill="#fff0d2"/><path d="m214.71 206.452c2.113 0 4.226.806 5.839 2.419 3.226 3.226 3.226 8.452 0 11.677l-8.258 8.258c-3.226 3.226-8.452 3.226-11.677 0-3.226-3.226-3.226-8.452 0-11.677l8.258-8.258c1.612-1.613 3.725-2.419 5.838-2.419z" fill="#fff0d2"/><path d="m222.968 173.419c-13.682 0-24.774-11.092-24.774-24.774 0-2.485.518-4.974 1.199-7.238-10.197 3.068-17.715 12.557-17.715 23.754 0 13.682 11.092 24.774 24.774 24.774h99.097c10.771 0 19.955-6.916 23.368-16.516z" fill="#fb5f7a"/><path d="m313.806 289.032h-115.612l-9.875 22.657h125.487l16.516-6.14c.001-9.122-7.394-16.517-16.516-16.517z" fill="#fff0d2"/><path d="m198.194 289.032c-9.121 0-16.516 7.394-16.516 16.516 0 9.121 7.395 16.516 16.516 16.516h115.613c9.121 0 16.516-7.395 16.516-16.516h-115.613c-9.122 0-16.516-7.394-16.516-16.516z" fill="#f8d7ae"/><path d="m313.806 355.097h-115.612l-9.875 22.657h125.487l16.516-6.14c0-9.123-7.394-16.517-16.516-16.517z" fill="#fff0d2"/><path d="m198.194 355.097c-9.121 0-16.516 7.394-16.516 16.516 0 9.121 7.395 16.516 16.516 16.516h115.613c9.121 0 16.516-7.395 16.516-16.516h-115.613c-9.122 0-16.516-7.395-16.516-16.516z" fill="#f8d7ae"/><path d="m313.806 421.161h-115.612l-9.875 22.657h125.487l16.516-6.14c0-9.122-7.394-16.517-16.516-16.517z" fill="#fff0d2"/><path d="m198.194 421.161c-9.121 0-16.516 7.394-16.516 16.516 0 9.121 7.395 16.516 16.516 16.516h115.613c9.121 0 16.516-7.395 16.516-16.516h-115.613c-9.122 0-16.516-7.394-16.516-16.516z" fill="#f8d7ae"/></g></svg>